<?xml version="1.0" encoding="utf-8"?>
<!-- Generator: Adobe Illustrator 27.1.1, SVG Export Plug-In . SVG Version: 6.00 Build 0)  -->
<svg version="1.1" xmlns="http://www.w3.org/2000/svg" xmlns:xlink="http://www.w3.org/1999/xlink" x="0px" y="0px"
	 viewBox="0 0 595.28 595.28" style="enable-background:new 0 0 595.28 595.28;" xml:space="preserve">
<style type="text/css">
	.st0{display:none;}
	.st1{display:inline;fill:#FFFFFF;stroke:#000000;stroke-miterlimit:10;}
	.st2{fill:#FFFFFF;stroke:#000000;stroke-miterlimit:10;}
</style>
<g id="Слой_1" class="st0">
	<path class="st1" d="M71.94,269.61c0.62-3.1,10.41-48.46,48-66.38c29.23-13.93,62.23-5.06,126.64,12.26
		c36.33,9.77,42.01,14.89,60.26,13.28c38.5-3.4,45.32-29.05,78.64-36.77c42.21-9.78,104.18,14.49,123.57,65.36
		c10.35,27.16,11.78,70.31-12.26,91.91c-28.97,26.04-67.16-4.2-154.21,15.32c-30.8,6.91-25.45,10.57-61.28,19.4
		c-60.49,14.92-110.81,27.34-153.19,2.04C93.48,365.37,62.17,318.35,71.94,269.61z"/>
</g>
<g id="Слой_2" class="st0">
	<path class="st1" d="M116.87,213.44c29.77-7.47,53.83-5.59,59.23-5.11c33.27,2.98,37.43,13.46,62.24,13.03
		c25.79-0.44,27.9-11.9,59.29-20.18c35.57-9.39,65.69-3.02,103.15,4.09c35.47,6.72,53.21,10.09,68.43,23.49
		c35.69,31.44,31.49,85.18,30.64,96c-1.56,19.91-3.93,50.23-25.53,68.43c-27.91,23.5-55.11-0.86-133.79,7.15
		c-47.16,4.8-51.03,14.94-109.28,19.4c-24.8,1.9-48.14,3.55-77.62-1.02c-40.7-6.31-72.33-10.04-97.02-35.74
		c-31.25-32.52-28.75-75.47-28.6-77.62c0.31-4.23,3.62-41.21,33.7-67.4C78.93,222.97,96.92,218.45,116.87,213.44z"/>
</g>
<g id="Слой_3" class="st0">
	<path class="st1" d="M499.85,324.76c11.79-23.08,29.78-58.27,15.32-94.98c-18.31-46.49-73.66-57.32-78.64-58.21
		c-22.01-3.96-44.25,2.42-87.83,15.32c-67.84,20.09-68.33,30.93-95.91,30.3c-47.9-1.08-58.3-34.04-96.09-27.24
		c-37.02,6.67-58.37,43.95-65.36,56.17c-2.62,4.58-36.97,66.22-12.26,103.15c22.13,33.08,67.65,10.5,177.7,28.6
		c96.1,15.8,118.08,42.33,164.81,24.16C469.98,383.22,493.96,336.29,499.85,324.76z"/>
</g>
<g id="Слой_4" class="st0">
	<path class="st1" d="M265.98,281.87c29.32-8.24,26.89-16.2,55.15-22.47c10.58-2.35,47.88-10.09,87.83,7.15
		c17.15,7.4,45.95,19.83,49.02,42.89c3.93,29.46-37.05,54.12-38.81,55.15c-31.9,18.69-46.09,1.32-111.73,11.54
		c-41.93,6.53-57.31,16.91-87.42,8.89c-9.86-2.63-28-7.74-40.85-24.51c-14.55-18.98-20.7-50.78-7.15-66.38
		C187.44,276.37,213.59,296.6,265.98,281.87z"/>
</g>
<g id="Слой_5">
	<path class="st2" d="M225.13,113.36c-31.19,9.88-62.62,21.36-92.94,49.02c-15.36,14.02-52.07,47.51-57.11,96.06
		c-3.13,30.13,9.2,34.67,30.56,116.36c15.37,58.79,10.41,61.87,20.43,74.55c25.12,31.81,72.58,31.85,166.47,30.64
		c79.63-1.03,120.24-2,159.32-24.51c14.92-8.6,74.46-42.88,80.68-97.02c3.8-33.09-15.92-42.22-13.11-86.08
		c2.54-39.6,19.6-47.47,23.32-81.41c4.1-37.44-10.52-83.89-38.81-109.28C457.25,39.8,379.88,64.32,225.13,113.36z"/>
</g>
<g id="Слой_6" class="st0">
	<path class="st1" d="M326.23,166.46c-17.95,13.57-38.71,29.26-66.38,35.74c-39.32,9.22-46.79-10.88-86.8-4.15
		c-44.7,7.52-73.46,39.02-81.71,48.06c-10.52,11.53-30.27,33.72-36.77,68.43c-0.9,4.82-11.94,69.26,30.64,109.28
		c30.26,28.43,69.99,28,109.28,27.57c47.18-0.51,51.75-12.41,102.13-18.38c84.22-9.99,97.62,20.15,155.23,4.09
		c8.48-2.36,80.65-23.61,103.15-84.77c10.92-29.67,4.89-55.18-7.15-106.21c-15.06-63.79-22.69-96.15-54.13-117.45
		c-36.02-24.41-88.37-24.17-121.53-4.09C353.92,135.66,356.12,143.87,326.23,166.46z"/>
</g>
<g id="Слой_7" class="st0">
	<path class="st1" d="M192.45,160.34c-28.77-2.08-63.15-4.55-94.98,13.28C39.2,206.26,30.53,283.96,28.96,298.02
		c-8.02,71.91,25.53,144.61,79.74,189.13c98.65,81,225.92,36,243.06,29.62c18.39-6.85,72.61-29.53,114.83-84.61
		c10.96-14.3,31.73-41.99,41.42-83.9c5.77-24.95,18.4-79.59-14.3-126.64c-2.72-3.91-30.43-42.52-79.66-52.09
		c-45.84-8.9-56,17.93-112.34,16.34C253.45,184.5,250.2,164.5,192.45,160.34z"/>
</g>
<g id="Слой_8" class="st0">
	<path class="st1" d="M249.07,173.52c9.01-11.77,21.63-28.25,37.34-38.71c45.37-30.23,118.39-11.57,164.43,21.45
		c8.44,6.05,70.79,50.78,69.16,111.99c-0.89,33.34-19.82,36.17-39.19,87.19c-29.04,76.53-1.13,108.88-29.97,142.95
		c-31.77,37.54-94.57,32.47-135.94,29.13c-44.89-3.62-117.28-9.47-159.21-69.98c-34.05-49.15-40.74-123.85-9.19-164.43
		c19.4-24.95,39.78-19.66,65.36-56.17C227.51,214.58,227.7,201.42,249.07,173.52z"/>
</g>
<g id="Слой_9" class="st0">
	<path class="st1" d="M288.45,104.17c-12.89-7.5-64.47-37.54-126.64-22.47c-11.44,2.77-61.5,14.91-89.87,61.28
		c-31.44,51.39-22.91,123.02,12.51,163.4c34.12,38.9,63.93,15.43,189.71,58.22c73.05,24.85,92.32,42.74,136,36.17
		c59.48-8.96,94.67-52.82,99.3-58.77c42.67-54.86,31.97-117.87,29.47-132.63c-4.58-26.97-12.86-75.75-47.23-91.91
		C442.5,94.31,390.6,161.8,329.3,134.8C310.17,126.38,315.62,119.98,288.45,104.17z"/>
</g>
<g id="Слой_10" class="st0">
	<path class="st1" d="M224.87,192.62c-76.53-7.5-98.14,1.78-115.32,10.49c-35.03,17.76-54.86,64.03-52.19,103.63
		c3.94,58.53,56.42,93.48,90.89,116.43c24.83,16.53,111.9,68.71,218.55,41.87c22.91-5.77,89.11-23.45,132.77-84.77
		C511.79,363.11,556,301,530.21,248.53c-23.05-46.9-86.51-54.53-93.61-55.28c-38.78-4.11-44.11,13.24-100.44,19.54
		C312.86,215.39,291.16,199.12,224.87,192.62z"/>
</g>
</svg>
